HIERARCHY
ROOT Hips
{
 OFFSET 0.000000 0.000000 0.000000
 CHANNELS 6 Xposition Yposition Zposition Yrotation Xrotation Zrotation
 JOINT Chest
 {
  OFFSET 0.000000 9.585900 0.002600
  CHANNELS 3 Yrotation Xrotation Zrotation
  JOINT Chest2
  {
   OFFSET 0.000000 9.601200 -0.005300
   CHANNELS 3 Yrotation Xrotation Zrotation
   JOINT Chest3
   {
    OFFSET 0.000000 9.561800 0.000000
    CHANNELS 3 Yrotation Xrotation Zrotation
    JOINT Chest4
    {
     OFFSET 0.000000 9.552100 0.000000
     CHANNELS 3 Yrotation Xrotation Zrotation
     JOINT Neck
     {
      OFFSET 0.000000 14.453000 0.000000
      CHANNELS 3 Yrotation Xrotation Zrotation
      JOINT Head
      {
       OFFSET 0.000000 8.936500 -0.011300
       CHANNELS 3 Yrotation Xrotation Zrotation
       End Site
       {
        OFFSET 0.000000 17.073600 -0.006000
       }
      }
     }
     JOINT RightCollar
     {
      OFFSET -2.921100 9.558500 0.000000
      CHANNELS 3 Yrotation Xrotation Zrotation
      JOINT RightShoulder
      {
       OFFSET -13.519700 0.000000 0.000000
       CHANNELS 3 Yrotation Xrotation Zrotation
       JOINT RightElbow
       {
        OFFSET 0.000000 -29.696600 0.000000
        CHANNELS 3 Yrotation Xrotation Zrotation
        JOINT RightWrist
        {
         OFFSET 0.000000 -24.004700 0.000000
         CHANNELS 3 Yrotation Xrotation Zrotation
         End Site
         {
          OFFSET 0.000000 -17.728500 0.000000
         }
        }
       }
      }
     }
     JOINT LeftCollar
     {
      OFFSET 2.921100 9.558500 0.000000
      CHANNELS 3 Yrotation Xrotation Zrotation
      JOINT LeftShoulder
      {
       OFFSET 13.519700 0.000000 0.000000
       CHANNELS 3 Yrotation Xrotation Zrotation
       JOINT LeftElbow
       {
        OFFSET 0.000000 -29.696600 0.000000
        CHANNELS 3 Yrotation Xrotation Zrotation
        JOINT LeftWrist
        {
         OFFSET 0.000000 -24.004700 0.000000
         CHANNELS 3 Yrotation Xrotation Zrotation
         End Site
         {
          OFFSET 0.000000 -17.728500 0.000000
         }
        }
       }
      }
     }
    }
   }
  }
 }
 JOINT RightHip
 {
  OFFSET -7.771700 -0.012900 -0.001300
  CHANNELS 3 Yrotation Xrotation Zrotation
  JOINT RightKnee
  {
   OFFSET 0.000000 -40.869800 0.001200
   CHANNELS 3 Yrotation Xrotation Zrotation
   JOINT RightAnkle
   {
    OFFSET 0.000000 -39.717900 0.002100
    CHANNELS 3 Yrotation Xrotation Zrotation
    JOINT RightToe
    {
     OFFSET 0.000000 -4.965400 11.033500
     CHANNELS 3 Yrotation Xrotation Zrotation
     End Site
     {
      OFFSET 0.000000 -1.423100 5.872300
     }
    }
   }
  }
 }
 JOINT LeftHip
 {
  OFFSET 7.771700 -0.012900 -0.001300
  CHANNELS 3 Yrotation Xrotation Zrotation
  JOINT LeftKnee
  {
   OFFSET 0.000000 -40.869800 0.001200
   CHANNELS 3 Yrotation Xrotation Zrotation
   JOINT LeftAnkle
   {
    OFFSET 0.000000 -39.717900 0.002100
    CHANNELS 3 Yrotation Xrotation Zrotation
    JOINT LeftToe
    {
     OFFSET 0.000000 -4.965400 11.033500
     CHANNELS 3 Yrotation Xrotation Zrotation
     End Site
     {
      OFFSET 0.000000 -1.423100 5.872300
     }
    }
   }
  }
 }
}
MOTION
Frames: 8
Frame Time: 0.008333
0.000000 85.388000 0.000000 0.000000 -5.767877 0.000000 0.000000 11.653817 0.000000 0.000000 -5.885947 0.000000 0.000000 -0.000000 0.000000 0.000000 -0.000000 0.000000 0.000000 12.528835 0.000000 0.000000 0.711642 0.000000 0.000000 -0.000000 0.000000 0.000000 0.000000 -90.000000 0.000000 -2.309062 0.000000 0.000000 2.309062 0.000000 0.000000 -0.000000 0.000000 0.000000 -0.000000 90.000000 0.000000 -2.309062 0.000000 0.000000 2.309062 0.000000 0.000000 8.520406 0.000000 0.000000 1.905762 0.000000 -0.000000 -4.658285 0.000000 0.000000 -0.000000 0.000000 0.000000 8.520406 0.000000 0.000000 1.905762 0.000000 -0.000000 -4.658285 0.000000 0.000000 -0.000000 0.000000
-120.036073 49.289791 19.969692 176.194744 -31.722108 -3.744729 0.782728 18.654839 2.582484 0.055556 2.163984 0.240235 0.094880 3.649871 0.399453 0.657792 16.145570 1.897071 4.540063 18.770091 -1.461923 8.779925 -0.704851 -4.109692 -1.879040 -2.949478 -3.919711 6.543454 -11.505910 -13.333315 -40.365122 -47.685390 92.430808 2.964775 2.372320 -12.693729 -0.836569 -2.636738 2.956323 -8.654791 -5.352635 15.024287 72.416413 -64.894420 -111.932565 4.333925 7.680119 5.157629 -8.373404 -52.456314 -5.160957 -161.681834 83.362722 -148.703434 -30.349287 -4.313233 -5.053969 0.003762 -12.843717 -0.232761 -12.378760 -54.878994 19.062921 -73.157096 64.942643 -78.605554 30.874654 6.881634 16.841332 -0.013554 -0.459321 -0.003896
-120.036023 49.290249 19.969191 176.203302 -31.741927 -3.751123 0.777896 18.648634 2.583816 0.056376 2.129187 0.238617 0.095509 3.580241 0.399487 0.653767 16.173904 1.905658 4.683636 19.021122 -1.459679 9.026769 -0.229082 -4.130759 -1.877572 -2.855110 -3.901334 6.413976 -11.560069 -13.294240 -40.646140 -48.164767 92.432743 3.133667 2.714248 -12.254349 -0.834943 -2.555946 2.945061 -8.537930 -5.442607 14.988126 72.685679 -64.968298 -112.058762 4.116335 7.933283 4.741213 -8.373896 -52.435865 -5.165596 -161.665014 83.359368 -148.681652 -30.348964 -4.314753 -5.058717 0.004691 -12.845547 -0.228480 -12.384315 -54.855494 19.062191 -73.146398 64.949131 -78.598140 30.867636 6.874688 16.839878 -0.016378 -0.452907 -0.003112
-120.036075 49.290374 19.970043 176.211770 -31.757987 -3.759096 0.773481 18.638544 2.586573 0.057045 2.095345 0.236366 0.095178 3.547958 0.399856 0.651664 16.165370 1.913450 4.837522 19.298211 -1.456722 9.290353 0.295890 -4.150842 -1.871869 -2.768862 -3.864244 6.255329 -11.611783 -13.260359 -40.983433 -48.726269 92.450149 3.348524 3.122356 -11.739076 -0.834693 -2.476148 2.935527 -8.414556 -5.534734 14.945774 72.986330 -65.040183 -112.190310 3.874936 8.203252 4.258449 -8.379774 -52.420492 -5.165678 -161.666101 83.358585 -148.680927 -30.348078 -4.308767 -5.060097 0.002729 -12.851000 -0.228471 -12.386298 -54.837165 19.062155 -73.140831 64.948004 -78.591854 30.864332 6.868862 16.837279 -0.011409 -0.445338 -0.002386
-120.035583 49.291026 19.971239 176.220898 -31.778262 -3.772954 0.772165 18.556263 2.589464 0.054435 2.138340 0.241485 0.094891 3.534690 0.400451 0.651601 16.138194 1.919840 4.998014 19.597481 -1.453108 9.564094 0.862485 -4.168889 -1.873169 -2.675205 -3.853415 6.065798 -11.679932 -13.186245 -41.390062 -49.380166 92.492042 3.614406 3.603211 -11.152791 -0.834326 -2.407555 2.932820 -8.290632 -5.618751 14.889061 73.330632 -65.112335 -112.331521 3.600629 8.492889 3.700767 -8.386608 -52.399471 -5.155797 -161.661411 83.359977 -148.676318 -30.348279 -4.297919 -5.052437 0.003441 -12.857581 -0.234312 -12.396861 -54.813777 19.068845 -73.136170 64.947421 -78.586303 30.867821 6.863639 16.837139 -0.015444 -0.440050 -0.002787
-120.035899 49.291165 19.974377 176.214809 -31.791563 -3.777173 0.785826 18.517622 2.598793 0.054468 2.129957 0.241701 0.094993 3.521424 0.400808 0.646783 16.160900 1.922939 5.167587 19.860313 -1.454505 9.841273 1.453580 -4.187150 -1.870372 -2.639202 -3.821266 5.850100 -11.739455 -13.114478 -41.882259 -50.130909 92.569877 3.948508 4.165604 -10.503725 -0.829898 -2.402600 2.952697 -8.152795 -5.695081 14.804176 73.725302 -65.195292 -112.494275 3.282125 8.797571 3.063156 -8.373966 -52.388328 -5.150034 -161.660946 83.372648 -148.675409 -30.361153 -4.271196 -5.050295 0.005466 -12.868430 -0.237160 -12.396503 -54.798169 19.074774 -73.129633 64.949257 -78.579437 30.870079 6.859363 16.838505 -0.019646 -0.435589 -0.004528
-120.036990 49.291636 19.978086 176.218461 -31.805730 -3.784648 0.791555 18.493312 2.608205 0.057759 2.109613 0.243209 0.095365 3.508713 0.401295 0.638466 16.181603 1.922760 5.339507 20.126528 -1.457871 10.113933 2.045668 -4.211652 -1.873317 -2.599234 -3.783489 5.606679 -11.799214 -13.030487 -42.471037 -50.978235 92.699215 4.373957 4.809250 -9.813096 -0.826143 -2.380787 2.986392 -7.985776 -5.793008 14.706521 74.191610 -65.301550 -112.708229 2.913380 9.100636 2.330776 -8.367546 -52.374204 -5.150247 -161.676348 83.382799 -148.687422 -30.366356 -4.254293 -5.046492 0.001891 -12.874685 -0.242073 -12.401386 -54.783713 19.075293 -73.123149 64.949531 -78.570262 30.874219 6.863737 16.838385 -0.021393 -0.436177 -0.005085
-120.038423 49.292489 19.982121 176.223268 -31.822353 -3.793232 0.800079 18.460491 2.621476 0.058036 2.102200 0.243701 0.095829 3.496987 0.402327 0.655722 16.083736 1.936617 5.478678 20.501998 -1.462841 10.376390 2.619570 -4.248805 -1.919544 -2.455332 -3.724566 5.340129 -11.844405 -12.959484 -43.147763 -51.924950 92.886930 4.905366 5.510396 -9.103459 -0.847448 -2.242339 3.018295 -7.782517 -5.897023 14.598808 74.762547 -65.433896 -113.011901 2.497012 9.386939 1.490314 -8.367540 -52.357268 -5.145032 -161.719272 83.395160 -148.730779 -30.375137 -4.240716 -5.041261 0.002702 -12.877798 -0.248520 -12.408017 -54.768656 19.076763 -73.116810 64.958122 -78.561589 30.868568 6.872572 16.833162 -0.017663 -0.439494 -0.002185
